Inverse Dynamics Generalized Forces
version=1
nRows=9
nColumns=34
inDegrees=no
endheader 
time	pelvis_tilt_moment	pelvis_list_moment	pelvis_rotation_moment	pelvis_tx_force	pelvis_ty_force	pelvis_tz_force	hip_flexion_l_moment	hip_adduction_l_moment	hip_rotation_l_moment	hip_flexion_r_moment	hip_adduction_r_moment	hip_rotation_r_moment	knee_angle_l_moment	knee_angle_r_moment	ankle_angle_l_moment	ankle_angle_r_moment	subtalar_angle_l_moment	subtalar_angle_r_moment	mtp_angle_l_moment	mtp_angle_r_moment	lumbar_extension_moment	lumbar_bending_moment	lumbar_rotation_moment	arm_flex_l_moment	arm_add_l_moment	arm_rot_l_moment	arm_flex_r_moment	arm_add_r_moment	arm_rot_r_moment	elbow_flex_l_moment	elbow_flex_r_moment	pro_sup_l_moment	pro_sup_r_moment	
          4.20000000	         -0.00002317	          0.00000783	          0.00000068	          0.00005674	          0.00005714	          0.00004085	         23.58676463	          4.61899464	          2.25653672	         33.85596148	        -17.60178926	          2.46593080	         -8.49385495	        -16.31226366	          1.48425327	          1.36115506	          0.19493129	          0.36208586	         -0.15090591	         -0.12830565	       -126.39510171	         61.59039202	         77.45034823	       -116.37558638	        100.92008685	         40.30653940	       -131.73413847	        123.07352848	         89.49575125	          5.85711124	         84.62028204	          1.47062951	          0.20562280	
          4.21000000	         -0.00000942	         -0.00000335	          0.00000129	          0.00001795	          0.00002964	          0.00000985	         25.80461008	          5.41283477	          2.48605610	          1.96438479	         -6.11226292	         -0.03681637	        -10.74284801	         -0.06742131	          1.05043353	          1.06762090	          0.14285012	          0.08088300	         -0.10434686	         -0.13480011	        -68.21345109	         38.56043330	         52.65371687	        -77.77623635	         38.34050388	         20.68298828	        -78.18858646	         73.85601141	         54.71844454	         -5.70428884	         26.38052774	          0.97369976	          0.75616885	
          4.22000000	         -0.00000210	         -0.00000434	          0.00000022	          0.00000173	          0.00001365	         -0.00000118	         28.18105974	        -11.13843913	          6.94691522	         -0.93722377	        -10.15402958	          0.51710606	         -9.30441634	          1.82426115	          0.46558043	          1.12810858	         -0.06198012	         -0.22685160	         -0.04866325	         -0.10599306	        -54.37380429	         15.51573465	         40.43622381	        -62.78696264	         11.23319329	         12.59683749	        -47.31110415	         37.97282684	         34.59697177	        -11.09963569	          3.27219398	          0.71903997	          0.87758942	
          4.23000000	          0.00000100	         -0.00000289	         -0.00000185	         -0.00000352	          0.00000722	          0.00000013	         27.07018592	        -14.80319858	          6.31853883	        -13.61567080	        -11.40248392	         -0.79031537	         -6.70114208	          1.61666166	         -0.21837718	          0.67595289	         -0.08377345	         -0.23163850	          0.01410287	         -0.06094013	        -20.20328563	          4.03534133	         29.25294063	        -17.10282508	         12.08035989	          4.41019297	        -10.34205593	         16.09562757	          9.50188631	          1.47166898	         -0.23441964	          0.10509340	          0.25035179	
          4.24000000	          0.00000233	          0.00000040	         -0.00000139	         -0.00000428	         -0.00000170	          0.00000023	         46.40325391	        -15.39922851	          6.26826332	        -31.60944465	         -9.29184824	         -2.05852978	         -8.53354718	          1.95744483	         -0.31728066	          0.15347643	         -0.26937953	         -0.12430903	          0.06926736	         -0.02365771	         -9.65404397	        -12.10744535	         28.75965948	          4.39367372	         19.50155918	          2.11957856	         15.77014373	          0.91893767	         -6.11478744	          9.57731743	          0.18862005	         -0.13488617	         -0.19199276	
          4.25000000	          0.00000479	          0.00000235	         -0.00000225	         -0.00000773	         -0.00000800	         -0.00000135	         65.87989514	        -18.24633823	          6.42012844	        -44.80439980	        -11.86128921	          1.20345742	         -9.53550991	          1.88015558	         -0.27532953	         -0.04843390	         -0.51952085	         -0.21773832	          0.11789306	          0.00198895	         -8.75412349	        -22.56952759	         30.88705058	         15.38550771	         28.20129018	          3.64874301	         28.04097817	         -6.73617993	        -10.08718951	         15.20345179	         -0.40205623	         -0.07011802	         -0.26322408	
          4.26000000	          0.00000196	         -0.00000095	         -0.00000197	         -0.00000413	          0.00000062	         -0.00000194	         77.97706856	        -12.64075215	          5.14191734	        -54.66742754	        -20.02549145	          7.35717580	         -8.21970309	          4.71585019	          0.32818259	          0.15367940	         -0.64188039	         -0.45846698	          0.09198735	         -0.00199914	        -20.45157566	        -10.90743065	         42.93593254	         -7.31829185	         24.86124961	          8.38341520	         -0.06343143	          8.80364268	          9.76472277	          7.80949714	         -1.27896615	          0.31236799	          0.28635419	
          4.27000000	         -0.00000047	         -0.00000409	         -0.00000179	         -0.00000230	          0.00000888	         -0.00000215	         87.77406389	         -8.87349171	          5.38494351	        -74.96613813	        -21.83715071	         10.49968475	         -7.27971888	         15.07579351	          0.96248693	          0.34122872	         -0.82260397	         -0.73128578	          0.05533490	         -0.01471342	        -20.97686067	         -4.29717406	         51.64641942	        -27.82280287	         18.26678281	         12.09231651	        -25.94792787	         21.28914645	         28.09997821	          1.14990386	         -2.59975138	          0.62446717	          0.79122298	
          4.28000000	         -0.00000002	         -0.00000221	         -0.00000109	         -0.00000309	          0.00000403	         -0.00000166	         90.07233951	         -2.28382345	          4.58541702	       -101.68701527	        -10.54066680	          7.32200274	         -6.73064100	         28.46906917	          1.53574128	          0.27930733	         -0.90659631	         -0.70243301	          0.00784936	         -0.03549838	         -8.88229107	         -5.85352828	         50.24258448	        -53.92991755	        -10.86560084	          8.08020296	        -26.26242722	         19.00572793	         14.56079180	        -11.21088872	         -1.47380282	          0.62441078	          0.41499200	
